HIERARCHY
ROOT joint_Root
{
	OFFSET 0.0 0.0 0.0
	CHANNELS 6 Xposition Yposition Zposition Zrotation Xrotation Yrotation 
	JOINT Hips
	{
		OFFSET -0.726466 93.3139 -2.00062
		CHANNELS 6 Xposition Yposition Zposition Zrotation Xrotation Yrotation 
		JOINT Spine
		{
			OFFSET 15.7357 0.0 0.0
			CHANNELS 6 Xposition Yposition Zposition Zrotation Xrotation Yrotation 
			JOINT Chest
			{
				OFFSET 8.98455 -0.406207 0.0
				CHANNELS 6 Xposition Yposition Zposition Zrotation Xrotation Yrotation 
				JOINT Neck
				{
					OFFSET 16.3773 0.0 0.0
					CHANNELS 6 Xposition Yposition Zposition Zrotation Xrotation Yrotation 
					JOINT Head
					{
						OFFSET 6.45672 0.0 0.0
						CHANNELS 6 Xposition Yposition Zposition Zrotation Xrotation Yrotation 
						End Site
						{
							OFFSET 0.0 0.0 0.0
						}
					}
				}
				JOINT Shoulder_L
				{
					OFFSET 12.9942 -0.242716 4.98039
					CHANNELS 6 Xposition Yposition Zposition Zrotation Xrotation Yrotation 
					JOINT UpperArm_L
					{
						OFFSET 5.34809 0.0 0.0
						CHANNELS 6 Xposition Yposition Zposition Zrotation Xrotation Yrotation 
						JOINT LowerArm_L
						{
							OFFSET 24.3286 1.87007e-05 0.0
							CHANNELS 6 Xposition Yposition Zposition Zrotation Xrotation Yrotation 
							JOINT Hand_L
							{
								OFFSET 22.2916 0.0 0.0
								CHANNELS 6 Xposition Yposition Zposition Zrotation Xrotation Yrotation 
								End Site
								{
									OFFSET 0.0 0.0 0.0
								}
							}
						}
					}
				}
				JOINT Shoulder_R
				{
					OFFSET 12.9945 -0.242716 -4.98039
					CHANNELS 6 Xposition Yposition Zposition Zrotation Xrotation Yrotation 
					JOINT UpperArm_R
					{
						OFFSET -5.34813 0.0 0.0
						CHANNELS 6 Xposition Yposition Zposition Zrotation Xrotation Yrotation 
						JOINT LowerArm_R
						{
							OFFSET -24.3289 0.000322201 0.0
							CHANNELS 6 Xposition Yposition Zposition Zrotation Xrotation Yrotation 
							JOINT Hand_R
							{
								OFFSET -22.2915 -0.000108084 0.0
								CHANNELS 6 Xposition Yposition Zposition Zrotation Xrotation Yrotation 
								End Site
								{
									OFFSET 0.0 0.0 0.0
								}
							}
						}
					}
				}
			}
		}
		JOINT UpperLeg_L
		{
			OFFSET -2.19248 -6.46944 0.0
			CHANNELS 6 Xposition Yposition Zposition Zrotation Xrotation Yrotation 
			JOINT LowerLeg_L
			{
				OFFSET 39.0811 0.0 -1.23785e-05
				CHANNELS 6 Xposition Yposition Zposition Zrotation Xrotation Yrotation 
				JOINT Foot_L
				{
					OFFSET 40.9854 0.0 -1.26872e-05
					CHANNELS 6 Xposition Yposition Zposition Zrotation Xrotation Yrotation 
					JOINT Toes_L
					{
						OFFSET 11.7543 0.0 0.0
						CHANNELS 6 Xposition Yposition Zposition Zrotation Xrotation Yrotation 
						End Site
						{
							OFFSET 0.0 0.0 0.0
						}
					}
				}
			}
		}
		JOINT UpperLeg_R
		{
			OFFSET -2.19251 6.46944 0.0
			CHANNELS 6 Xposition Yposition Zposition Zrotation Xrotation Yrotation 
			JOINT LowerLeg_R
			{
				OFFSET -39.0811 -0.00228153 -0.0401928
				CHANNELS 6 Xposition Yposition Zposition Zrotation Xrotation Yrotation 
				JOINT Foot_R
				{
					OFFSET -40.9854 0.0 0.0
					CHANNELS 6 Xposition Yposition Zposition Zrotation Xrotation Yrotation 
					JOINT Toes_R
					{
						OFFSET -11.7543 0.0 0.0
						CHANNELS 6 Xposition Yposition Zposition Zrotation Xrotation Yrotation 
						End Site
						{
							OFFSET 0.0 0.0 0.0
						}
					}
				}
			}
		}
	}
}
MOTION
Frames:	6
Frame Time:	0.0333333
0.000000 0.000000 0.000000 0.000000 0.000000 -0.000000 -176.645000 88.536800 203.691000 28.039300 86.013400 62.415100 15.735700 0.000005 -0.000001 64.904700 83.421700 -62.911300 8.984550 -0.406207 -0.000000 4.266770 -5.632160 4.194770 16.377300 -0.000001 -0.000001 3.443620 0.668462 -0.996605 6.456720 -0.000001 -0.000000 2.147770 5.166130 -2.190830 12.994200 -0.242716 4.980390 -89.751500 -0.843497 -73.585500 5.348090 -0.000007 -0.000001 -55.019400 22.819000 -40.254700 24.328600 0.000019 0.000005 -1.713020 -2.127930 -38.850100 22.291600 -0.000001 0.000005 13.297400 5.561750 -9.273440 12.994500 -0.242716 -4.980390 87.984400 5.438220 -69.627400 -5.348130 -0.000001 -0.000004 -68.186500 17.630600 -2.957500 -24.328900 0.000322 -0.000009 1.520180 10.875200 -8.012060 -22.291500 -0.000108 -0.000004 11.780200 5.319320 -0.476064 -2.192480 -6.469440 -0.000000 -174.432000 -5.162020 8.927240 39.081100 -0.000007 -0.000012 -0.002309 0.004849 25.464900 40.985400 -0.000006 -0.000013 4.803810 6.559130 -74.359400 11.754300 -0.000000 0.000003 -0.965161 -1.146520 -27.108500 -2.192510 6.469440 -0.000001 -168.674000 16.041500 151.419000 -39.081100 -0.002282 -0.040193 0.010204 -0.021983 17.373200 -40.985400 0.000008 0.000006 8.105510 1.314960 -50.349000 -11.754300 -0.000006 -0.000006 -0.025218 -0.194646 -24.536900
0.000000 0.000000 0.000000 0.000000 0.000000 -0.000000 -172.403000 88.274100 204.623000 8.523890 85.100800 81.856500 15.735700 0.000005 -0.000001 62.740300 83.492400 -60.038300 8.984550 -0.406207 -0.000000 3.970490 -6.042350 5.611690 16.377300 -0.000001 -0.000001 3.359620 0.503456 -1.255670 6.456720 -0.000001 -0.000000 2.591240 5.290340 -2.953240 12.994200 -0.242716 4.980390 -89.969700 -0.105635 -74.021400 5.348090 -0.000007 -0.000001 -55.208900 24.400500 -37.748500 24.328600 0.000019 0.000005 -1.728700 -2.148130 -38.841000 22.291600 -0.000001 0.000005 12.877000 5.564460 -9.408060 12.994500 -0.242716 -4.980390 87.731500 6.074510 -69.477300 -5.348130 -0.000001 -0.000004 -67.827300 18.523400 -4.140410 -24.328900 0.000322 -0.000009 1.517960 10.627600 -8.182280 -22.291500 -0.000108 -0.000004 11.434300 5.321780 -0.547293 -2.192480 -6.469440 -0.000000 -171.924000 -4.345230 9.653950 39.081100 -0.000007 -0.000012 -0.004867 0.009006 28.390200 40.985400 -0.000006 -0.000013 3.955350 8.110880 -71.939900 11.754300 -0.000000 0.000003 -0.052801 -0.307623 -29.256700 -2.192510 6.469440 -0.000001 -169.431000 11.379400 150.764000 -39.081100 -0.002282 -0.040193 0.031361 -0.065069 23.316700 -40.985400 0.000008 0.000006 6.656860 -1.591710 -47.391300 -11.754300 -0.000006 -0.000006 -0.027173 -0.204204 -24.932400
0.000000 0.000000 0.000000 0.000000 0.000000 -0.000000 -167.751000 88.236900 205.537000 -3.716830 84.063400 95.024500 15.735700 0.000005 -0.000001 61.655400 83.303100 -58.319600 8.984550 -0.406207 -0.000000 4.240940 -6.451770 6.909070 16.377300 -0.000001 -0.000001 3.343390 0.330662 -1.473640 6.456720 -0.000001 -0.000000 2.842610 5.359490 -3.646590 12.994200 -0.242716 4.980390 -90.102700 0.364839 -74.275400 5.348090 -0.000007 -0.000001 -56.397400 27.003900 -34.198600 24.328600 0.000019 0.000005 -1.424650 -1.816740 -38.111800 22.291600 -0.000001 0.000005 12.350400 5.569600 -9.667880 12.994500 -0.242716 -4.980390 87.605300 6.373000 -69.356100 -5.348130 -0.000001 -0.000004 -67.664300 19.962500 -5.545540 -24.328900 0.000322 -0.000009 1.546940 10.214300 -8.664860 -22.291500 -0.000108 -0.000004 10.685700 5.330270 -0.793980 -2.192480 -6.469440 -0.000000 -169.864000 -3.224920 10.164800 39.081100 -0.000007 -0.000012 0.002588 -0.003997 32.911000 40.985400 -0.000006 -0.000013 3.061200 8.882430 -66.401500 11.754300 -0.000000 0.000003 -0.136765 -0.527920 -38.825900 -2.192510 6.469440 -0.000001 -169.760000 8.377270 151.810000 -39.081100 -0.002282 -0.040193 0.010540 -0.012842 29.401600 -40.985400 0.000008 0.000006 5.531560 -6.231800 -50.860600 -11.754300 -0.000006 -0.000006 -0.019220 -0.162931 -23.228400
0.000000 0.000000 0.000000 0.000000 0.000000 -0.000000 -163.070000 88.415600 206.337000 -5.153730 83.861500 98.309100 15.735700 0.000005 -0.000001 63.284000 82.962000 -59.756900 8.984550 -0.406207 -0.000000 5.039620 -6.399430 7.334100 16.377300 -0.000001 -0.000001 3.438720 0.254506 -1.417110 6.456720 -0.000001 -0.000000 2.975650 5.307370 -3.767620 12.994200 -0.242716 4.980390 -90.043500 0.153850 -74.227300 5.348090 -0.000007 -0.000001 -58.844000 30.076500 -30.115600 24.328600 0.000019 0.000005 -0.763619 -1.044690 -36.153700 22.291600 -0.000001 0.000005 11.117900 5.564950 -9.429540 12.994500 -0.242716 -4.980390 87.640700 6.314450 -69.464100 -5.348130 -0.000001 -0.000004 -67.963500 21.630200 -7.359040 -24.328900 0.000322 -0.000009 1.627430 9.964510 -9.330220 -22.291500 -0.000108 -0.000004 9.590170 5.338000 -1.020730 -2.192480 -6.469440 -0.000000 -169.019000 -2.948780 9.223740 39.081100 -0.000007 -0.000012 0.023293 -0.027495 40.267800 40.985400 -0.000006 -0.000013 2.839190 8.702080 -57.137500 11.754300 -0.000000 0.000003 -0.198161 -0.642051 -44.082100 -2.192510 6.469440 -0.000001 -169.667000 7.708280 154.855000 -39.081100 -0.002282 -0.040193 0.023931 -0.030818 33.808100 -40.985400 0.000008 0.000006 7.314090 -7.448410 -56.186400 -11.754300 -0.000006 -0.000006 -0.014511 -0.134716 -22.068700
0.000000 0.000000 0.000000 0.000000 0.000000 -0.000000 -158.842000 88.748600 207.176000 -6.374090 83.974600 100.989000 15.735700 0.000005 -0.000001 65.703700 82.753200 -62.264100 8.984550 -0.406207 -0.000000 5.658520 -6.012450 7.174060 16.377300 -0.000001 -0.000001 3.355770 -0.051616 -1.006290 6.456720 -0.000001 -0.000000 3.186660 4.865010 -2.899270 12.994200 -0.242716 4.980390 -89.902100 -0.346593 -74.231800 5.348090 -0.000007 -0.000001 -61.682900 32.954200 -26.452300 24.328600 0.000019 0.000005 0.319051 0.497730 -32.731700 22.291600 -0.000001 0.000005 8.754350 5.547930 -8.594220 12.994500 -0.242716 -4.980390 87.575400 6.495810 -69.480500 -5.348130 -0.000001 -0.000004 -68.116300 23.638400 -9.495810 -24.328900 0.000322 -0.000009 1.709600 9.311880 -10.458000 -22.291500 -0.000108 -0.000004 8.789250 5.339950 -1.077990 -2.192480 -6.469440 -0.000000 -169.027000 -1.824460 5.357840 39.081100 -0.000007 -0.000012 0.032591 -0.027693 49.641700 40.985400 -0.000006 -0.000013 0.863609 6.882930 -46.000800 11.754300 -0.000000 0.000003 -0.101662 -0.448674 -35.311400 -2.192510 6.469440 -0.000001 -169.816000 7.558390 158.747000 -39.081100 -0.002282 -0.040193 0.003081 0.000294 35.341200 -40.985400 0.000008 0.000006 6.781040 -8.391190 -60.147300 -11.754300 -0.000006 -0.000006 -0.013106 -0.125544 -21.692600
0.000000 0.000000 0.000000 0.000000 0.000000 -0.000000 -155.350000 88.962000 207.798000 -4.749690 84.368600 100.043000 15.735700 0.000005 -0.000001 69.318100 82.756400 -66.123000 8.984550 -0.406207 -0.000000 5.958340 -5.153580 6.655060 16.377300 -0.000001 -0.000001 3.165940 -0.420123 -0.501071 6.456720 -0.000001 -0.000000 3.128930 4.006650 -1.598720 12.994200 -0.242716 4.980390 -89.849400 -0.529382 -74.121700 5.348090 -0.000007 -0.000001 -64.262500 35.209800 -23.308900 24.328600 0.000019 0.000005 1.558260 2.848340 -28.716600 22.291600 -0.000001 0.000005 5.775030 5.518810 -7.293700 12.994500 -0.242716 -4.980390 87.508700 6.770580 -69.743500 -5.348130 -0.000001 -0.000004 -67.903400 25.841000 -11.991200 -24.328900 0.000322 -0.000009 1.806900 8.491210 -12.067100 -22.291500 -0.000108 -0.000004 8.967270 5.348960 -1.346000 -2.192480 -6.469440 -0.000000 -169.517000 -1.199690 -0.773920 39.081100 -0.000007 -0.000012 0.050271 -0.030469 58.776000 40.985400 -0.000006 -0.000013 -2.191950 2.780710 -34.706900 11.754300 -0.000000 0.000003 -0.008049 -0.088443 -20.178300 -2.192510 6.469440 -0.000001 -170.077000 8.545520 161.683000 -39.081100 -0.002282 -0.040193 0.020857 -0.024030 36.170500 -40.985400 0.000008 0.000006 7.200370 -7.711890 -63.326900 -11.754300 -0.000006 -0.000006 -0.012387 -0.120683 -21.493400
